<svg xmlns="http://www.w3.org/2000/svg" xmlns:xlink="http://www.w3.org/1999/xlink" width="666.19" height="390.398" viewBox="0 0 666.19 390.398">
  <defs>
    <clipPath id="clip-path">
      <path id="Path_2999" data-name="Path 2999" d="M865.448,316.922a44.4,44.4,0,1,1,17.287-3.491A44.4,44.4,0,0,1,865.448,316.922Zm0-70.63a26.132,26.132,0,1,0,10.209,2.06A26.132,26.132,0,0,0,865.448,246.292Z" transform="translate(-821.079 -228.123)" fill="none"/>
    </clipPath>
  </defs>
  <g id="Group_4374" data-name="Group 4374" transform="translate(-5146.693 -3599.693)">
    <g id="Group_4098" data-name="Group 4098" transform="translate(5147 3600)">
      <path id="Rectangle_1799" data-name="Rectangle 1799" d="M5,0H660.885a5,5,0,0,1,5,5v379.6a5,5,0,0,1-5,5H5a5,5,0,0,1-5-5V5A5,5,0,0,1,5,0Z" fill="#fff"/>
      <path id="Path_2983" data-name="Path 2983" d="M1.933,0h53.75V389.785H1.933A1.934,1.934,0,0,1,0,387.852V1.933A1.934,1.934,0,0,1,1.933,0Z" fill="#0d45a4"/>
      <path id="Path_2984" data-name="Path 2984" d="M2.24.5H55.6A.193.193,0,0,1,55.8.693V389.705a.193.193,0,0,1-.193.193H2.24a1.74,1.74,0,0,1-1.74-1.74h0V2.24A1.74,1.74,0,0,1,2.24.5Z" transform="translate(-0.307 -0.307)" fill="none" stroke="#707070" stroke-width="1"/>
      <path id="Rectangle_1041" data-name="Rectangle 1041" d="M439.61,65.042H662.59a8.035,8.035,0,0,1,8.035,8.035h0a8.035,8.035,0,0,1-8.035,8.035H439.61a8.035,8.035,0,0,1-8.035-8.035h0A8.035,8.035,0,0,1,439.61,65.042Z" transform="translate(-264.689 -39.891)" fill="#dedede"/>
      <rect id="Rectangle_1053" data-name="Rectangle 1053" width="83" height="39" rx="1" transform="translate(70.883 12.785)" fill="none"/>
      <path id="Polygon_1" data-name="Polygon 1" d="M229.175,79.89l18.174,21.727H211Z" transform="translate(-129.408 -48.997)" fill="#dedede"/>
      <path id="Polygon_2" data-name="Polygon 2" d="M284.008,28.906l27.226,41.442H256.782Z" transform="translate(-157.487 -17.728)" fill="#dedede"/>
      <path id="Path_2985" data-name="Path 2985" d="M256.782,116.276h18.646l-10.443-12.485Z" transform="translate(-157.487 -63.656)" fill="#cecece"/>
      <circle id="Ellipse_148" data-name="Ellipse 148" cx="4.254" cy="4.254" r="4.254" transform="translate(141.759 18.561)" fill="#dedede"/>
      <path id="Path_1617" data-name="Path 1617" d="M53.321,114.616A11.81,11.81,0,0,1,39.238,108l-3.182,1.164a15.214,15.214,0,0,0,14,9.3,15.529,15.529,0,0,0,4.428-.651Z" transform="translate(-22.113 -66.234)" fill="#76d25d"/>
      <path id="Path_1618" data-name="Path 1618" d="M85.978,59.39l-1.16,3.182a11.881,11.881,0,0,1-.075,21.71l1.16,3.193a15.274,15.274,0,0,0,.074-28.085" transform="translate(-51.974 -36.424)" fill="#3199f0"/>
      <path id="Path_1619" data-name="Path 1619" d="M45.891,78.613h3.364a6.881,6.881,0,0,1,6.078-6.076v-3.4a10.257,10.257,0,0,0-9.442,9.474" transform="translate(-28.145 -42.404)" fill="#faf9fc"/>
      <path id="Path_1620" data-name="Path 1620" d="M80.513,97.666a6.9,6.9,0,0,1-6.046,6.076v3.4a10.257,10.257,0,0,0,9.442-9.474Z" transform="translate(-45.671 -59.899)" fill="#faf9fc"/>
      <path id="Path_1621" data-name="Path 1621" d="M41.334,80.321H36.406c-.021-.256-.021-.513-.021-.78a11.85,11.85,0,0,1,2.874-7.753l-2.395-2.4A15.2,15.2,0,0,0,33,79.541a15.52,15.52,0,0,0,.66,4.474l4.651-1.7a10.276,10.276,0,0,0,9.1,7.486v-3.4a6.9,6.9,0,0,1-6.078-6.087" transform="translate(-20.239 -42.555)" fill="#ff405d"/>
      <path id="Path_1622" data-name="Path 1622" d="M56.862,61.234v3.4a6.917,6.917,0,0,1,6.077,6.076h3.423A10.275,10.275,0,0,0,58.916,61.6l1.7-4.667a15.416,15.416,0,0,0-4.524-.683A15.21,15.21,0,0,0,45.8,60.228l2.407,2.4a11.85,11.85,0,0,1,7.885-2.99c.268,0,.524.011.781.021v1.57Z" transform="translate(-28.09 -34.497)" fill="#f2c049"/>
      <path id="Path_1588" data-name="Path 1588" d="M576.113,736.389s-12.029-22.651-36.877-23.093-46.806,60.931-74.063,61.832S437,751.605,416.449,752.745s-26.571-24.248-53.4-24.248S330.938,681.3,305.259,681.3,258,728.5,258,728.5v56.586H576.113Z" transform="translate(-158.234 -417.85)" fill="#3099ef"/>
      <path id="Path_382" data-name="Path 382" d="M258,844.572s35.594,16.478,52.26,16.478,37.132-13.969,53.615-13.969,33.021,21.928,52.5,17.725,24.56-41.625,54.646-41.625,36.495,33.963,52.623,37.868,52.467-23.763,52.467-23.763V872.53H258Z" transform="translate(-158.234 -504.864)" fill="#76d25d"/>
      <path id="Rectangle_937" data-name="Rectangle 937" d="M1452.286,65h39.2a8.286,8.286,0,0,1,8.286,8.286h0a8.286,8.286,0,0,1-8.286,8.286h-39.2A8.286,8.286,0,0,1,1444,73.286h0A8.286,8.286,0,0,1,1452.286,65Z" transform="translate(-885.617 -39.865)" fill="#0d45a3"/>
      <path id="Path_721" data-name="Path 721" d="M1614.449,65.188a8.286,8.286,0,1,1-8.286,8.286h0A8.286,8.286,0,0,1,1614.449,65.188Z" transform="translate(-985.073 -39.98)" fill="#e7ebf4"/>
      <path id="Path_820" data-name="Path 820" d="M1620.929,84a.253.253,0,0,1-.253-.253h0V80.206h-3.544a.253.253,0,1,1,0-.507h3.545V76.155a.253.253,0,0,1,.507,0V79.7h3.545a.253.253,0,1,1,0,.507h-3.546v3.546a.253.253,0,0,1-.253.253h0Z" transform="translate(-991.645 -46.551)" fill="#0d45a4"/>
      <path id="More_options" data-name="More options" d="M1671.6,68.865a1.911,1.911,0,1,0-1.911-1.911,1.911,1.911,0,0,0,1.911,1.911Zm0,1.911a1.911,1.911,0,1,0,1.911,1.911A1.911,1.911,0,0,0,1671.6,70.776Zm0,5.734a1.911,1.911,0,1,0,1.911,1.911h0A1.911,1.911,0,0,0,1671.6,76.51Z" transform="translate(-1024.031 -39.891)" fill="#0d45a4"/>
      <g id="Group_4088" data-name="Group 4088" transform="translate(91.61 30.011)" style="isolation: isolate">
        <path id="Path_2986" data-name="Path 2986" d="M244.563,77.609l-3.129,4.655v3.054h-1.4V82.264l-3.129-4.655H238.5l2.23,3.486,2.241-3.486Z" transform="translate(-236.908 -77.609)" fill="#707070"/>
        <path id="Path_2987" data-name="Path 2987" d="M255.836,88.39a2.367,2.367,0,0,1-.974-.991,3.515,3.515,0,0,1,0-3.021,2.367,2.367,0,0,1,.974-.991,3.009,3.009,0,0,1,1.467-.346,2.957,2.957,0,0,1,1.451.346,2.377,2.377,0,0,1,.969.991,3.515,3.515,0,0,1,0,3.021,2.377,2.377,0,0,1-.969.991,2.952,2.952,0,0,1-1.451.346A3.005,3.005,0,0,1,255.836,88.39Zm2.512-1.164a2.629,2.629,0,0,0-.005-2.674,1.416,1.416,0,0,0-2.09,0,2.629,2.629,0,0,0-.005,2.674,1.264,1.264,0,0,0,1.045.449A1.277,1.277,0,0,0,258.347,87.226Z" transform="translate(-247.71 -80.94)" fill="#707070"/>
        <path id="Path_2988" data-name="Path 2988" d="M276.809,83.4v5.468h-1.321v-.845a1.779,1.779,0,0,1-.693.693,2.037,2.037,0,0,1-1,.238q-2,0-2-2.252V83.4h1.343v3.313a1.318,1.318,0,0,0,.244.877.941.941,0,0,0,.752.282,1.23,1.23,0,0,0,.953-.39,1.479,1.479,0,0,0,.357-1.04V83.4Z" transform="translate(-258.305 -81.164)" fill="#707070"/>
        <path id="Path_2989" data-name="Path 2989" d="M291.917,83.156l-.01,1.234a1.881,1.881,0,0,0-.715-.141,1.352,1.352,0,0,0-1.056.4,1.52,1.52,0,0,0-.363,1.061v2.956H288.43v-3.92a12.429,12.429,0,0,0-.086-1.548h1.267l.108.963a1.625,1.625,0,0,1,.65-.812,1.841,1.841,0,0,1,1.007-.282A1.522,1.522,0,0,1,291.917,83.156Z" transform="translate(-268.454 -80.958)" fill="#707070"/>
        <path id="Path_2990" data-name="Path 2990" d="M307.467,85.318V77.609h1.4V84.17h3.605v1.148Z" transform="translate(-280.182 -77.609)" fill="#707070"/>
        <path id="Path_2991" data-name="Path 2991" d="M323.344,88.39a2.367,2.367,0,0,1-.974-.991,3.515,3.515,0,0,1,0-3.021,2.367,2.367,0,0,1,.974-.991,3.008,3.008,0,0,1,1.467-.346,2.957,2.957,0,0,1,1.451.346,2.377,2.377,0,0,1,.969.991,3.515,3.515,0,0,1,0,3.021,2.377,2.377,0,0,1-.969.991,2.953,2.953,0,0,1-1.451.346A3,3,0,0,1,323.344,88.39Zm2.512-1.164a2.629,2.629,0,0,0-.005-2.674,1.416,1.416,0,0,0-2.09,0,2.629,2.629,0,0,0-.005,2.674,1.264,1.264,0,0,0,1.045.449A1.277,1.277,0,0,0,325.855,87.226Z" transform="translate(-289.113 -80.94)" fill="#707070"/>
        <path id="Path_2992" data-name="Path 2992" d="M344.191,83.182v5.295a2.532,2.532,0,0,1-.7,1.938,2.917,2.917,0,0,1-2.068.66,4.553,4.553,0,0,1-2.231-.531l.217-1.029a4.253,4.253,0,0,0,1.981.52,1.287,1.287,0,0,0,1.461-1.451V87.5a1.9,1.9,0,0,1-.725.72,2.094,2.094,0,0,1-1.072.276,2.388,2.388,0,0,1-1.272-.341,2.294,2.294,0,0,1-.867-.964,3.443,3.443,0,0,1,0-2.848,2.3,2.3,0,0,1,.867-.964,2.388,2.388,0,0,1,1.272-.341,2.235,2.235,0,0,1,1.077.254,1.752,1.752,0,0,1,.72.709v-.823Zm-1.727,3.811a1.807,1.807,0,0,0,.384-1.224,1.825,1.825,0,0,0-.379-1.223,1.484,1.484,0,0,0-2.117,0,2.141,2.141,0,0,0,0,2.447,1.477,1.477,0,0,0,2.111,0Z" transform="translate(-299.279 -80.94)" fill="#707070"/>
        <path id="Path_2993" data-name="Path 2993" d="M357.363,88.39a2.365,2.365,0,0,1-.974-.991,3.515,3.515,0,0,1,0-3.021,2.365,2.365,0,0,1,.974-.991,3.009,3.009,0,0,1,1.467-.346,2.957,2.957,0,0,1,1.451.346,2.377,2.377,0,0,1,.969.991,3.515,3.515,0,0,1,0,3.021,2.377,2.377,0,0,1-.969.991,2.953,2.953,0,0,1-1.451.346A3,3,0,0,1,357.363,88.39Zm2.512-1.164a2.628,2.628,0,0,0-.005-2.674,1.417,1.417,0,0,0-2.09,0,2.63,2.63,0,0,0-.005,2.674,1.452,1.452,0,0,0,2.1,0Z" transform="translate(-309.977 -80.94)" fill="#707070"/>
      </g>
      <g id="Group_4089" data-name="Group 4089" transform="translate(576.05 31.115)" style="isolation: isolate">
        <path id="Path_2994" data-name="Path 2994" d="M1490.44,84.844a2.173,2.173,0,0,1-.752-.39l.273-.582a2.307,2.307,0,0,0,.671.356,2.444,2.444,0,0,0,.764.114,1.312,1.312,0,0,0,.708-.161.508.508,0,0,0,.25-.452.417.417,0,0,0-.232-.381,2.9,2.9,0,0,0-.764-.251,3.169,3.169,0,0,1-1.206-.464.973.973,0,0,1-.378-.829,1.187,1.187,0,0,1,.21-.693,1.4,1.4,0,0,1,.6-.476,2.167,2.167,0,0,1,.894-.173,2.772,2.772,0,0,1,.881.139,1.835,1.835,0,0,1,.683.387l-.266.582a2.033,2.033,0,0,0-1.3-.47,1.142,1.142,0,0,0-.675.176.558.558,0,0,0-.248.479.438.438,0,0,0,.22.4,2.615,2.615,0,0,0,.751.254,5.376,5.376,0,0,1,.9.282,1.341,1.341,0,0,1,.532.39.944.944,0,0,1,.185.6,1.152,1.152,0,0,1-.21.69,1.342,1.342,0,0,1-.606.455,2.477,2.477,0,0,1-.934.161A3.221,3.221,0,0,1,1490.44,84.844Z" transform="translate(-1489.688 -80.464)" fill="#fff"/>
        <path id="Path_2995" data-name="Path 2995" d="M1503.579,80.608h.792v4.405h-.792V83.1h-2.258v1.912h-.786V80.608h.786v1.844h2.258Z" transform="translate(-1496.341 -80.552)" fill="#fff"/>
        <path id="Path_2996" data-name="Path 2996" d="M1515.53,85.013l-.439-1.033h-2.153l-.445,1.033h-.8l1.992-4.405h.65l2,4.405Zm-2.326-1.652h1.621l-.811-1.887Z" transform="translate(-1503.181 -80.552)" fill="#fff"/>
        <path id="Path_2997" data-name="Path 2997" d="M1528.545,85.013h-.841l-.563-1.466a.493.493,0,0,0-.229-.285.874.874,0,0,0-.4-.08h-.8v1.831h-.792V80.608h1.887a1.729,1.729,0,0,1,1.139.328,1.16,1.16,0,0,1,.39.94,1.2,1.2,0,0,1-.232.746,1.254,1.254,0,0,1-.659.436.769.769,0,0,1,.563.544Zm-1.85-2.45a1.089,1.089,0,0,0,.668-.167.6.6,0,0,0,.217-.507.59.59,0,0,0-.213-.5,1.108,1.108,0,0,0-.671-.164h-1v1.336Z" transform="translate(-1511.296 -80.552)" fill="#fff"/>
        <path id="Path_2998" data-name="Path 2998" d="M1536.152,85.013V80.608h2.945v.631h-2.165v1.219h2.036v.631h-2.036v1.293h2.165v.631Z" transform="translate(-1518.185 -80.552)" fill="#fff"/>
      </g>
      <path id="bar" d="M544.112,446.939h38.9a2.159,2.159,0,0,1,2.145,2.172v31.112H541.967V449.111A2.159,2.159,0,0,1,544.112,446.939Z" transform="translate(-332.393 -274.111)" fill="#76d25d"/>
      <rect id="bar-2" width="43.188" height="13.518" transform="translate(209.574 192.594)" fill="#1d6cf0"/>
      <rect id="bar-3" width="43.188" height="6.103" transform="translate(209.574 186.491)" fill="#3099ef"/>
      <path id="bar-4" d="M262.469,283.605h42.25a.472.472,0,0,1,.469.474v93.76H262v-93.76A.472.472,0,0,1,262.469,283.605Z" transform="translate(-160.687 -173.937)" fill="#76d25d"/>
      <rect id="bar-5" width="43.188" height="26.702" transform="translate(101.313 179.228)" fill="#1d6cf0"/>
      <rect id="bar-6" width="43.188" height="33.741" transform="translate(101.313 149.105)" fill="#3099ef"/>
      <path id="bar-7" d="M404.127,421.21h38.9a2.159,2.159,0,0,1,2.145,2.172v40.954H401.982V423.382A2.159,2.159,0,0,1,404.127,421.21Z" transform="translate(-246.539 -258.332)" fill="#76d25d"/>
      <rect id="bar-8" width="43.188" height="13.406" transform="translate(155.443 192.598)" fill="#1d6cf0"/>
      <rect id="bar-9" width="43.188" height="15.704" transform="translate(155.443 177.369)" fill="#3099ef"/>
      <path id="Path_721-2" data-name="Path 721-2" d="M204.863,664.016" transform="translate(-125.644 -407.247)" fill="#e8eaeb"/>
      <path id="Path_2576" data-name="Path 2576" d="M262,238.45" transform="translate(-160.687 -146.243)" fill="#e8eaeb"/>
      <path id="bar-10" d="M1224.441,828.077h49.289a.5.5,0,0,1,.441.547h0v46.694H1224V828.624A.5.5,0,0,1,1224.441,828.077Z" transform="translate(-750.689 -507.867)" fill="#3099ef"/>
      <path id="bar-11" d="M1382.67,720.913h49.289a.5.5,0,0,1,.441.547h0v88.134h-50.171V721.46A.5.5,0,0,1,1382.67,720.913Z" transform="translate(-847.733 -442.142)" fill="#3099ef"/>
      <path id="bar-12" d="M1540.984,769.774h49.289a.5.5,0,0,1,.442.547h0V839.56h-50.171V770.321A.5.5,0,0,1,1540.984,769.774Z" transform="translate(-944.828 -472.109)" fill="#3099ef"/>
      <path id="Path_1938" data-name="Path 1938" d="M1224,950.536h172.635" transform="translate(-750.689 -582.972)" fill="none" stroke="#dedede" stroke-width="6"/>
      <path id="Path_1938-2" data-name="Path 1938-2" d="M256.782,950.536H575.366" transform="translate(-157.487 -582.972)" fill="none" stroke="#dedede" stroke-width="6"/>
      <path id="Path_1938-3" data-name="Path 1938-3" d="M262,532.536H413.449" transform="translate(-160.687 -326.609)" fill="none" stroke="#dedede" stroke-width="6"/>
      <path id="Path_2035" data-name="Path 2035" d="M1444.919,784.558l62.063,19.729" transform="translate(-886.181 -481.176)" fill="#f1c048" stroke="#ffb810" stroke-width="4"/>
      <ellipse id="Ellipse_269" data-name="Ellipse 269" cx="4.447" cy="4.06" rx="4.447" ry="4.06" transform="translate(616.354 318.247)" fill="#f1c048"/>
      <ellipse id="Ellipse_269-2" data-name="Ellipse 269-2" cx="4.447" cy="4.06" rx="4.447" ry="4.06" transform="translate(488.972 341.835)" fill="#f1c048"/>
      <ellipse id="Ellipse_269-3" data-name="Ellipse 269-3" cx="4.447" cy="4.06" rx="4.447" ry="4.06" transform="translate(555.528 300.459)" fill="#f1c048"/>
      <path id="Path_2858" data-name="Path 2858" d="M1276,828.374l65.32-43.7" transform="translate(-782.581 -481.248)" fill="none" stroke="#f1c048" stroke-width="4"/>
      <g id="Group_4089-2" data-name="Group 4089" transform="translate(473.697 88.46)">
        <path id="Subtraction_3" data-name="Subtraction 3" d="M1400.992,309.174h-37.84a42.571,42.571,0,1,0-85.143,0h-37.841a80.411,80.411,0,1,1,160.823,0Z" transform="translate(-1234.303 -228.762)" fill="#f1c048"/>
        <path id="Subtraction_5" data-name="Subtraction 5" d="M1278.234,345.749h-37.945a81.2,81.2,0,0,1,1.637-16.251,80.259,80.259,0,0,1,12.132-28.834,81.274,81.274,0,0,1,9.845-11.933l.217-.215,26.833,26.832-.217.215a42.55,42.55,0,0,0-11.636,21.581,43.157,43.157,0,0,0-.867,8.6Z" transform="translate(-1234.377 -265.41)" fill="#3099ef"/>
        <path id="Line_286" data-name="Line 286" d="M1225,436.766h172.217" transform="translate(-1225 -356.333)" fill="none" stroke="#dedede" stroke-linecap="round" stroke-width="6"/>
        <rect id="Rectangle_1528" data-name="Rectangle 1528" width="45.578" height="13.022" rx="5" transform="translate(63.224 73.827)" fill="#dedede"/>
      </g>
      <rect id="Rectangle_1793" data-name="Rectangle 1793" width="25.317" height="8.035" rx="4.018" transform="translate(227.445 122.808)" fill="#dedede"/>
      <rect id="Rectangle_1793-2" data-name="Rectangle 1793-2" width="25.317" height="8.035" rx="4.018" transform="translate(227.445 109.274)" fill="#dedede"/>
      <rect id="Rectangle_1793-3" data-name="Rectangle 1793-3" width="36.531" height="8.035" rx="4.018" transform="translate(312.904 197.053)" fill="#dedede"/>
      <rect id="Rectangle_1793-4" data-name="Rectangle 1793-4" width="33.051" height="8.035" rx="4.018" transform="translate(375.548 197.053)" fill="#dedede"/>
      <rect id="Rectangle_1793-5" data-name="Rectangle 1793-5" width="25.317" height="8.035" rx="4.018" transform="translate(392.563 265.884)" fill="#dedede"/>
      <rect id="Rectangle_1793-6" data-name="Rectangle 1793-6" width="25.317" height="8.035" rx="4.018" transform="translate(227.445 95.739)" fill="#dedede"/>
      <rect id="Rectangle_1793-7" data-name="Rectangle 1793-7" width="36.531" height="8.035" rx="4.018" transform="translate(312.904 183.518)" fill="#dedede"/>
      <rect id="Rectangle_1793-8" data-name="Rectangle 1793-8" width="47.745" height="8.035" rx="4.018" transform="translate(375.548 183.518)" fill="#dedede"/>
      <rect id="Rectangle_1793-9" data-name="Rectangle 1793-9" width="25.317" height="8.035" rx="4.018" transform="translate(392.563 252.35)" fill="#dedede"/>
      <rect id="Rectangle_1793-10" data-name="Rectangle 1793-10" width="63.986" height="8.035" rx="4.018" transform="translate(582.042 252.35)" fill="#dedede"/>
      <g id="Group_4091" data-name="Group 4091" transform="translate(317.504 88.213)">
        <g id="Group_4090" data-name="Group 4090" clip-path="url(#clip-path)">
          <g id="Group_4100" data-name="Group 4100" transform="translate(-4.338 -7.881)">
            <path id="Path_2572" data-name="Path 2572" d="M843.656,208.763l34.83,51.379,58.872,3.613V208.763Z" transform="translate(-830.588 -208.368)" fill="#f1c048"/>
            <path id="Path_2573" data-name="Path 2573" d="M859.5,259.517l-46.8,28.257,5.051-76.26,6.866-3.771Z" transform="translate(-811.603 -207.742)" fill="#ff405d"/>
            <path id="Path_2574" data-name="Path 2574" d="M857.759,341.633l26.384,53.244s-74.922-6.445-74.278-7.409.715-17.488.715-17.488Z" transform="translate(-809.86 -289.858)" fill="#76d25d"/>
            <path id="Path_2575" data-name="Path 2575" d="M992.509,345.1l-58.781-3.471,26.593,53.63Z" transform="translate(-885.829 -289.858)" fill="#3099ef"/>
          </g>
        </g>
      </g>
      <rect id="Rectangle_1793-11" data-name="Rectangle 1793-11" width="148.181" height="8.035" rx="4.018" transform="translate(101.313 72.332)" fill="#dedede"/>
      <rect id="Rectangle_1793-12" data-name="Rectangle 1793-12" width="148.181" height="8.035" rx="4.018" transform="translate(473.697 72.332)" fill="#dedede"/>
      <rect id="Rectangle_1793-13" data-name="Rectangle 1793-13" width="122.66" height="8.035" rx="4.018" transform="translate(300.459 72.332)" fill="#dedede"/>
      <rect id="Rectangle_1798" data-name="Rectangle 1798" width="56" height="50" transform="translate(-0.117 217.785)" fill="#00216a" opacity="0.745" style="isolation: isolate"/>
      <g id="Group_4091-2" data-name="Group 4091" transform="translate(20.108 73.858)">
        <path id="Path_1330" data-name="Path 1330" d="M52,197.448,60.025,191l8.025,6.448" transform="translate(-52 -191)" fill="none" stroke="#fff" stroke-linecap="round" stroke-linejoin="round" stroke-width="2"/>
        <path id="Path_1331" data-name="Path 1331" d="M62.159,202.12,55.5,207.4a.826.826,0,0,0-.291.573v6.345a.732.732,0,0,0,.755.7h4.458v-5.023a.366.366,0,0,1,.378-.351h2.72a.366.366,0,0,1,.378.351v5.023h4.459a.732.732,0,0,0,.755-.7v-6.345a.826.826,0,0,0-.291-.573Z" transform="translate(-53.968 -197.82)" fill="none" stroke="#fff" stroke-linecap="round" stroke-linejoin="round" stroke-width="2"/>
      </g>
      <g id="Group_4092" data-name="Group 4092" transform="translate(19.616 97.681)" style="isolation: isolate">
        <path id="Path_3000" data-name="Path 3000" d="M53.772,252.608h.792v4.405h-.792V255.1H51.514v1.912h-.786v-4.405h.786v1.844h2.258Z" transform="translate(-50.728 -252.608)" fill="#fff"/>
        <path id="Path_3001" data-name="Path 3001" d="M63.272,258.768a1.353,1.353,0,0,1-.557-.566,2.009,2.009,0,0,1,0-1.726,1.353,1.353,0,0,1,.557-.566,1.721,1.721,0,0,1,.838-.2,1.691,1.691,0,0,1,.829.2,1.357,1.357,0,0,1,.554.566,2.009,2.009,0,0,1,0,1.726,1.357,1.357,0,0,1-.554.566,1.691,1.691,0,0,1-.829.2A1.721,1.721,0,0,1,63.272,258.768Zm1.435-.665a1.5,1.5,0,0,0,0-1.528.809.809,0,0,0-1.194,0,1.5,1.5,0,0,0,0,1.528.722.722,0,0,0,.6.257A.73.73,0,0,0,64.707,258.1Z" transform="translate(-57.96 -254.512)" fill="#fff"/>
        <path id="Path_3002" data-name="Path 3002" d="M76.841,256.031a1.51,1.51,0,0,1,.26.968v1.918h-.773v-1.893a.92.92,0,0,0-.121-.535.463.463,0,0,0-.4-.164.614.614,0,0,0-.5.226.965.965,0,0,0-.182.622v1.745h-.773v-1.893a.888.888,0,0,0-.127-.532.469.469,0,0,0-.4-.167.623.623,0,0,0-.507.226.952.952,0,0,0-.186.622v1.745h-.767v-2.24a7.11,7.11,0,0,0-.049-.885h.724l.056.495a.972.972,0,0,1,.393-.427,1.157,1.157,0,0,1,.591-.148.891.891,0,0,1,.934.594,1.075,1.075,0,0,1,.424-.436,1.215,1.215,0,0,1,.616-.158A.96.96,0,0,1,76.841,256.031Z" transform="translate(-63.966 -254.512)" fill="#fff"/>
        <path id="Path_3003" data-name="Path 3003" d="M89.283,257.395H87.13a1.128,1.128,0,0,0,.251.739.881.881,0,0,0,.671.238,1.541,1.541,0,0,0,.953-.334l.223.532a1.743,1.743,0,0,1-.548.288,2.076,2.076,0,0,1-.659.108,1.644,1.644,0,0,1-1.206-.433,1.593,1.593,0,0,1-.439-1.188,1.819,1.819,0,0,1,.192-.848,1.413,1.413,0,0,1,.538-.578,1.5,1.5,0,0,1,.786-.207,1.3,1.3,0,0,1,1.018.418,1.657,1.657,0,0,1,.375,1.148Zm-1.878-.944a.892.892,0,0,0-.251.529h1.454a.866.866,0,0,0-.213-.532.651.651,0,0,0-.486-.179A.708.708,0,0,0,87.406,256.451Z" transform="translate(-72.591 -254.512)" fill="#fff"/>
      </g>
      <path id="Path_1560" data-name="Path 1560" d="M66.07,323.433H65.3v-3.69a.741.741,0,0,0-1.482,0v3.69H59.428v-3.69a.74.74,0,0,0-1.445-.027v3.69h-.732a2.2,2.2,0,0,0-1.6.65,2.243,2.243,0,0,0-.652,1.61v2.98a6.721,6.721,0,0,0,3.037,5.628.694.694,0,0,0-.055.378v1.294a2.232,2.232,0,0,0,2.223,2.231h.732v2.233a.741.741,0,1,0,1.482,0V338.13h.732A2.233,2.233,0,0,0,65.3,335.9v-1.246a.7.7,0,0,0-.092-.332,6.721,6.721,0,0,0,3.039-5.628v-3.026a2.224,2.224,0,0,0-2.178-2.233ZM63.856,335.9a.741.741,0,0,1-.218.525.728.728,0,0,1-.523.213H60.17a.729.729,0,0,1-.524-.213.741.741,0,0,1-.218-.525v-.923a6.354,6.354,0,0,0,4.428,0Zm2.954-7.252a5.169,5.169,0,1,1-10.338,0h0v-2.98a.742.742,0,0,1,.218-.525.729.729,0,0,1,.524-.213H66.07a.729.729,0,0,1,.524.213.742.742,0,0,1,.218.525Z" transform="translate(-33.732 -195.647)" fill="#fff"/>
      <path id="Path_1561" data-name="Path 1561" d="M68.977,338.153H65.087a1.1,1.1,0,0,0-.937.345.6.6,0,0,0,0,.8,1.1,1.1,0,0,0,.937.345h3.89a1.1,1.1,0,0,0,.937-.345.6.6,0,0,0,0-.8A1.1,1.1,0,0,0,68.977,338.153Z" transform="translate(-39.251 -207.388)" fill="#fff"/>
      <g id="Group_4093" data-name="Group 4093" transform="translate(16.093 151.763)" style="isolation: isolate">
        <path id="Path_3004" data-name="Path 3004" d="M42.621,396.7a1.86,1.86,0,0,1-.746-.789,2.874,2.874,0,0,1,0-2.388,1.839,1.839,0,0,1,.746-.786,2.262,2.262,0,0,1,1.135-.275,2.491,2.491,0,0,1,.838.139,1.805,1.805,0,0,1,.653.387l-.26.582a2.093,2.093,0,0,0-.591-.35,1.8,1.8,0,0,0-.628-.108,1.22,1.22,0,0,0-.987.415,1.794,1.794,0,0,0-.35,1.188,1.828,1.828,0,0,0,.346,1.2,1.213,1.213,0,0,0,.99.418,1.8,1.8,0,0,0,.628-.108,2.1,2.1,0,0,0,.591-.35l.26.582a1.8,1.8,0,0,1-.653.387,2.491,2.491,0,0,1-.838.139A2.243,2.243,0,0,1,42.621,396.7Z" transform="translate(-41.616 -392.464)" fill="#fff"/>
        <path id="Path_3005" data-name="Path 3005" d="M52.944,398.768a1.353,1.353,0,0,1-.557-.566,2.009,2.009,0,0,1,0-1.726,1.353,1.353,0,0,1,.557-.566,1.72,1.72,0,0,1,.838-.2,1.691,1.691,0,0,1,.829.2,1.36,1.36,0,0,1,.554.566,2.009,2.009,0,0,1,0,1.726,1.359,1.359,0,0,1-.554.566,1.69,1.69,0,0,1-.829.2A1.719,1.719,0,0,1,52.944,398.768Zm1.435-.665a1.5,1.5,0,0,0,0-1.528.809.809,0,0,0-1.194,0,1.5,1.5,0,0,0,0,1.528.722.722,0,0,0,.6.257A.73.73,0,0,0,54.379,398.1Z" transform="translate(-48.102 -394.456)" fill="#fff"/>
        <path id="Path_3006" data-name="Path 3006" d="M64.941,397v1.918h-.773v-1.881a.838.838,0,0,0-.142-.541.539.539,0,0,0-.439-.17.753.753,0,0,0-.569.226.826.826,0,0,0-.217.6v1.77h-.767v-2.24a7.106,7.106,0,0,0-.049-.885h.724l.056.514a1.131,1.131,0,0,1,.436-.439,1.25,1.25,0,0,1,.622-.155Q64.942,395.712,64.941,397Z" transform="translate(-54.108 -394.456)" fill="#fff"/>
        <path id="Path_3007" data-name="Path 3007" d="M74.589,397v1.918h-.773v-1.881a.838.838,0,0,0-.142-.541.539.539,0,0,0-.439-.17.753.753,0,0,0-.569.226.826.826,0,0,0-.217.6v1.77h-.767v-2.24a7.106,7.106,0,0,0-.049-.885h.724l.056.514a1.131,1.131,0,0,1,.436-.439,1.249,1.249,0,0,1,.622-.155Q74.589,395.712,74.589,397Z" transform="translate(-60.025 -394.456)" fill="#fff"/>
        <path id="Path_3008" data-name="Path 3008" d="M83.868,397.395H81.715a1.126,1.126,0,0,0,.251.739.882.882,0,0,0,.671.238,1.543,1.543,0,0,0,.953-.334l.223.532a1.746,1.746,0,0,1-.548.288,2.079,2.079,0,0,1-.659.108,1.643,1.643,0,0,1-1.206-.433,1.591,1.591,0,0,1-.439-1.188,1.819,1.819,0,0,1,.192-.848,1.412,1.412,0,0,1,.538-.579,1.5,1.5,0,0,1,.786-.207,1.3,1.3,0,0,1,1.018.418,1.659,1.659,0,0,1,.374,1.148Zm-1.878-.944a.894.894,0,0,0-.251.529h1.454a.866.866,0,0,0-.213-.532.651.651,0,0,0-.486-.179A.709.709,0,0,0,81.99,396.451Z" transform="translate(-65.746 -394.456)" fill="#fff"/>
        <path id="Path_3009" data-name="Path 3009" d="M90.47,398.768a1.346,1.346,0,0,1-.551-.56,1.961,1.961,0,0,1,.009-1.711,1.433,1.433,0,0,1,.569-.579,1.7,1.7,0,0,1,.851-.207,2.017,2.017,0,0,1,.647.105,1.259,1.259,0,0,1,.5.291l-.217.544a1.5,1.5,0,0,0-.421-.244,1.246,1.246,0,0,0-.439-.084.833.833,0,0,0-.656.263,1.342,1.342,0,0,0,0,1.513.837.837,0,0,0,.659.26,1.21,1.21,0,0,0,.439-.087,1.554,1.554,0,0,0,.421-.247l.217.544a1.371,1.371,0,0,1-.514.291,2.083,2.083,0,0,1-.662.105A1.729,1.729,0,0,1,90.47,398.768Z" transform="translate(-71.123 -394.456)" fill="#fff"/>
        <path id="Path_3010" data-name="Path 3010" d="M98.637,394.882v1.4q0,.551.514.551a1.081,1.081,0,0,0,.309-.049v.613a1.451,1.451,0,0,1-.495.074,1.077,1.077,0,0,1-.817-.3,1.186,1.186,0,0,1-.285-.854v-1.435h-.6V394.3h.6v-.761l.773-.26V394.3h.829v.582Z" transform="translate(-75.745 -392.964)" fill="#fff"/>
      </g>
      <g id="Group_4092-2" data-name="Group 4092" transform="translate(18.948 229.308)">
        <rect id="Rectangle_1030" data-name="Rectangle 1030" width="17.797" height="18.746" rx="1.5" fill="none" stroke="#fff" stroke-linecap="round" stroke-linejoin="round" stroke-width="1.5"/>
      </g>
      <path id="Path_1329" data-name="Path 1329" d="M55.443,610.849h2.345l1.766-4.048a.605.605,0,0,1,1.094.021l2.573,6.681a.58.58,0,0,0,.5.356.6.6,0,0,0,.561-.268L66,610.849h2.344" transform="translate(-34.004 -371.95)" fill="none" stroke="#fff" stroke-linecap="round" stroke-linejoin="round" stroke-width="1.5"/>
      <g id="Group_4094" data-name="Group 4094" transform="translate(16.98 254.155)" style="isolation: isolate">
        <path id="Path_3011" data-name="Path 3011" d="M47.562,657.608h.631v4.405h-.705v-2.735l-1.169,2.735h-.526l-1.176-2.7v2.7h-.705v-4.405h.631l1.516,3.446Z" transform="translate(-43.912 -657.472)" fill="#fff"/>
        <path id="Path_3012" data-name="Path 3012" d="M57.64,663.768a1.353,1.353,0,0,1-.557-.566,2.009,2.009,0,0,1,0-1.726,1.353,1.353,0,0,1,.557-.566,1.72,1.72,0,0,1,.838-.2,1.691,1.691,0,0,1,.829.2,1.36,1.36,0,0,1,.554.566,2.009,2.009,0,0,1,0,1.726,1.359,1.359,0,0,1-.554.566,1.691,1.691,0,0,1-.829.2A1.72,1.72,0,0,1,57.64,663.768Zm1.435-.665a1.5,1.5,0,0,0,0-1.528.809.809,0,0,0-1.194,0,1.5,1.5,0,0,0,0,1.528.83.83,0,0,0,1.2,0Z" transform="translate(-51.87 -659.376)" fill="#fff"/>
        <path id="Path_3013" data-name="Path 3013" d="M69.637,662v1.918h-.773v-1.881a.838.838,0,0,0-.142-.541.54.54,0,0,0-.439-.17.753.753,0,0,0-.569.226.826.826,0,0,0-.217.6v1.769h-.767v-2.24a7.107,7.107,0,0,0-.049-.885H67.4l.056.514a1.131,1.131,0,0,1,.436-.439,1.249,1.249,0,0,1,.622-.155Q69.637,660.712,69.637,662Z" transform="translate(-57.876 -659.376)" fill="#fff"/>
        <path id="Path_3014" data-name="Path 3014" d="M76.328,657.256h.86v.761h-.86Zm.049,4.541v-3.125h.767V661.8Z" transform="translate(-63.793 -657.256)" fill="#fff"/>
        <path id="Path_3015" data-name="Path 3015" d="M81,659.882v1.4q0,.551.514.551a1.082,1.082,0,0,0,.309-.05v.613a1.454,1.454,0,0,1-.495.074,1.077,1.077,0,0,1-.816-.3,1.186,1.186,0,0,1-.285-.854v-1.435h-.6V659.3h.6v-.761l.773-.26V659.3h.829v.582Z" transform="translate(-65.814 -657.884)" fill="#fff"/>
        <path id="Path_3016" data-name="Path 3016" d="M87,663.768a1.353,1.353,0,0,1-.557-.566,2.012,2.012,0,0,1,0-1.726A1.353,1.353,0,0,1,87,660.91a1.721,1.721,0,0,1,.838-.2,1.689,1.689,0,0,1,.829.2,1.358,1.358,0,0,1,.554.566,2.012,2.012,0,0,1,0,1.726,1.358,1.358,0,0,1-.554.566,1.689,1.689,0,0,1-.829.2A1.721,1.721,0,0,1,87,663.768Zm1.435-.665a1.5,1.5,0,0,0,0-1.528.809.809,0,0,0-1.194,0,1.5,1.5,0,0,0,0,1.528.83.83,0,0,0,1.2,0Z" transform="translate(-69.877 -659.376)" fill="#fff"/>
        <path id="Path_3017" data-name="Path 3017" d="M98.082,660.778l-.006.705a1.076,1.076,0,0,0-.408-.08.773.773,0,0,0-.6.229.868.868,0,0,0-.208.606v1.689h-.767v-2.24a7.11,7.11,0,0,0-.049-.885h.724l.062.551a.926.926,0,0,1,.371-.464,1.052,1.052,0,0,1,.575-.161A.873.873,0,0,1,98.082,660.778Z" transform="translate(-75.883 -659.385)" fill="#fff"/>
      </g>
      <g id="Group_4095" data-name="Group 4095" transform="translate(18.264 305.335)" style="isolation: isolate">
        <path id="Path_3018" data-name="Path 3018" d="M50.858,794.013h-.841l-.563-1.466a.492.492,0,0,0-.229-.285.875.875,0,0,0-.4-.08h-.8v1.831h-.792v-4.405h1.887a1.728,1.728,0,0,1,1.138.328,1.16,1.16,0,0,1,.39.94,1.2,1.2,0,0,1-.232.745,1.257,1.257,0,0,1-.659.436.77.77,0,0,1,.563.544Zm-1.85-2.45a1.091,1.091,0,0,0,.668-.167.6.6,0,0,0,.217-.507.589.589,0,0,0-.213-.5,1.106,1.106,0,0,0-.671-.164h-1v1.336Z" transform="translate(-47.232 -789.608)" fill="#fff"/>
        <path id="Path_3019" data-name="Path 3019" d="M60.78,794.395H58.627a1.128,1.128,0,0,0,.251.739.882.882,0,0,0,.671.238,1.542,1.542,0,0,0,.953-.334l.223.532a1.748,1.748,0,0,1-.548.288,2.079,2.079,0,0,1-.659.108,1.642,1.642,0,0,1-1.206-.433,1.591,1.591,0,0,1-.439-1.188,1.819,1.819,0,0,1,.192-.848,1.415,1.415,0,0,1,.538-.578,1.5,1.5,0,0,1,.786-.207,1.3,1.3,0,0,1,1.018.418,1.659,1.659,0,0,1,.374,1.148Zm-1.878-.944a.894.894,0,0,0-.251.529h1.454a.866.866,0,0,0-.213-.532.651.651,0,0,0-.486-.179A.709.709,0,0,0,58.9,793.451Z" transform="translate(-53.758 -791.512)" fill="#fff"/>
        <path id="Path_3020" data-name="Path 3020" d="M69.506,792.919a1.386,1.386,0,0,1,.489.582,1.988,1.988,0,0,1,.176.857,1.961,1.961,0,0,1-.173.848,1.28,1.28,0,0,1-1.206.761,1.241,1.241,0,0,1-.606-.145,1,1,0,0,1-.408-.405v1.838h-.767v-3.576a7.107,7.107,0,0,0-.049-.885h.724l.062.538a.947.947,0,0,1,.4-.455,1.246,1.246,0,0,1,.643-.164A1.265,1.265,0,0,1,69.506,792.919Zm-.325,2.181a1.155,1.155,0,0,0,.21-.742,1.235,1.235,0,0,0-.21-.764.7.7,0,0,0-.594-.275.727.727,0,0,0-.606.266,1.2,1.2,0,0,0-.21.761,1.177,1.177,0,0,0,.21.752.82.82,0,0,0,1.2,0Z" transform="translate(-59.331 -791.512)" fill="#fff"/>
        <path id="Path_3021" data-name="Path 3021" d="M77.312,795.768a1.353,1.353,0,0,1-.557-.566,2.008,2.008,0,0,1,0-1.726,1.353,1.353,0,0,1,.557-.566,1.721,1.721,0,0,1,.838-.2,1.691,1.691,0,0,1,.829.2,1.357,1.357,0,0,1,.554.566,2.008,2.008,0,0,1,0,1.726,1.357,1.357,0,0,1-.554.566,1.691,1.691,0,0,1-.829.2A1.721,1.721,0,0,1,77.312,795.768Zm1.435-.665a1.5,1.5,0,0,0,0-1.528.809.809,0,0,0-1.194,0,1.5,1.5,0,0,0,0,1.528.722.722,0,0,0,.6.257A.73.73,0,0,0,78.747,795.1Z" transform="translate(-65.219 -791.512)" fill="#fff"/>
        <path id="Path_3022" data-name="Path 3022" d="M88.394,792.778l-.006.705a1.074,1.074,0,0,0-.408-.08.773.773,0,0,0-.6.229.868.868,0,0,0-.208.606v1.689H86.4v-2.24a7.111,7.111,0,0,0-.049-.885h.724l.062.551a.926.926,0,0,1,.371-.464,1.052,1.052,0,0,1,.575-.161A.873.873,0,0,1,88.394,792.778Z" transform="translate(-71.225 -791.522)" fill="#fff"/>
        <path id="Path_3023" data-name="Path 3023" d="M93.853,791.882v1.4q0,.551.514.551a1.083,1.083,0,0,0,.309-.05v.613a1.454,1.454,0,0,1-.495.074,1.077,1.077,0,0,1-.816-.3,1.186,1.186,0,0,1-.285-.854v-1.435h-.6V791.3h.6v-.761l.773-.26V791.3h.829v.582Z" transform="translate(-74.982 -790.02)" fill="#fff"/>
      </g>
      <path id="Path_1569" data-name="Path 1569" d="M51.742,742.727A1.75,1.75,0,0,1,50,740.972V725.756A1.75,1.75,0,0,1,51.742,724H63.348a1.725,1.725,0,0,1,1.215.5l2.285,2.25a1.777,1.777,0,0,1,.524,1.258v12.966a1.75,1.75,0,0,1-1.74,1.756Zm0-17.556a.583.583,0,0,0-.58.586v15.214a.583.583,0,0,0,.58.585H65.634a.583.583,0,0,0,.58-.585V728.005a.59.59,0,0,0-.175-.419l-2.286-2.25a.575.575,0,0,0-.4-.166Z" transform="translate(-30.667 -444.035)" fill="#fff"/>
      <path id="Path_1570" data-name="Path 1570" d="M65.682,739.93a4.682,4.682,0,1,1,0-9.364,4.594,4.594,0,0,1,3.255,1.347.321.321,0,0,1,.032.028.271.271,0,0,1,.024.028,4.694,4.694,0,0,1-2.281,7.842l-.027.008-.036.006a4.473,4.473,0,0,1-.964.1Zm-3.43-4.1a3.506,3.506,0,0,0,3.43,2.926c.054,0,.11,0,.168-.005l-.647-2.92Zm4.732,2.67a3.518,3.518,0,0,0,1.533-5.288l-2.213,2.22Zm-1.556-3.841,2.268-2.275a3.453,3.453,0,0,0-2.014-.651,3.506,3.506,0,0,0-3.43,2.927Z" transform="translate(-37.412 -448.062)" fill="#fff"/>
      <path id="Path_1571" data-name="Path 1571" d="M68.811,758.952a.585.585,0,1,1-.03-1.171h2.35a.585.585,0,0,1,.03,1.171h-2.35Z" transform="translate(-41.834 -464.754)" fill="#fff"/>
      <path id="Path_1572" data-name="Path 1572" d="M65.132,764.006a.585.585,0,0,1-.03-1.17h5.25a.585.585,0,0,1,.03,1.17H65.132Z" transform="translate(-39.578 -467.853)" fill="#fff"/>
      <path id="Path_1326" data-name="Path 1326" d="M64.519,861.017a1.4,1.4,0,0,0,.663,1.867,1.362,1.362,0,0,0,.133.055l.946.336a1.4,1.4,0,0,1,0,2.642l-.946.336a1.4,1.4,0,0,0-.851,1.789c.016.045.035.09.055.133l.432.905a1.4,1.4,0,0,1-1.869,1.869l-.907-.43a1.4,1.4,0,0,0-1.867.663,1.367,1.367,0,0,0-.055.133l-.336.945a1.4,1.4,0,0,1-2.641,0l-.337-.946a1.4,1.4,0,0,0-1.79-.851,1.367,1.367,0,0,0-.132.055l-.905.43a1.4,1.4,0,0,1-1.87-1.869l.43-.907a1.4,1.4,0,0,0-.663-1.867,1.443,1.443,0,0,0-.133-.055l-.946-.336a1.4,1.4,0,0,1,0-2.642l.946-.336a1.4,1.4,0,0,0,.851-1.79,1.377,1.377,0,0,0-.055-.131l-.43-.907a1.4,1.4,0,0,1,1.87-1.868l.907.43a1.4,1.4,0,0,0,1.867-.665c.02-.043.038-.085.054-.13l.336-.946a1.4,1.4,0,0,1,2.641,0l.336.946a1.4,1.4,0,0,0,1.789.851,1.384,1.384,0,0,0,.133-.055l.907-.432a1.4,1.4,0,0,1,1.869,1.869Z" transform="translate(-30.663 -524.992)" fill="none" stroke="#fafafa" stroke-linecap="round" stroke-linejoin="round" stroke-width="1.5"/>
      <circle id="Ellipse_163" data-name="Ellipse 163" cx="3.224" cy="3.224" r="3.224" transform="translate(24.674 336.381)" stroke-width="1.5" stroke="#fafafa" stroke-linecap="round" stroke-linejoin="round" fill="none"/>
      <g id="Group_4096" data-name="Group 4096" transform="translate(16.343 354.445)" style="isolation: isolate">
        <path id="Path_3024" data-name="Path 3024" d="M45.914,916.608h.631v4.405H45.84v-2.735l-1.169,2.735h-.526l-1.176-2.7v2.7h-.705v-4.405H42.9l1.516,3.446Z" transform="translate(-42.264 -916.608)" fill="#fff"/>
        <path id="Path_3025" data-name="Path 3025" d="M58.4,919.792v3.125h-.761v-.5a1,1,0,0,1-.408.405,1.243,1.243,0,0,1-.606.145,1.335,1.335,0,0,1-.724-.2,1.308,1.308,0,0,1-.489-.563,1.955,1.955,0,0,1-.173-.848,1.988,1.988,0,0,1,.176-.857,1.378,1.378,0,0,1,.492-.582,1.278,1.278,0,0,1,.718-.207,1.247,1.247,0,0,1,.606.145,1.008,1.008,0,0,1,.408.405v-.47Zm-.971,2.3a1.182,1.182,0,0,0,.21-.749,1.2,1.2,0,0,0-.21-.761.722.722,0,0,0-.6-.266.713.713,0,0,0-.6.275,1.218,1.218,0,0,0-.214.764,1.14,1.14,0,0,0,.214.742.737.737,0,0,0,.6.26A.713.713,0,0,0,57.43,922.094Z" transform="translate(-50.222 -918.512)" fill="#fff"/>
        <path id="Path_3026" data-name="Path 3026" d="M68.421,921v1.918h-.773v-1.881a.839.839,0,0,0-.142-.541.54.54,0,0,0-.439-.17.753.753,0,0,0-.569.226.826.826,0,0,0-.217.6v1.77h-.767v-2.24a7.1,7.1,0,0,0-.049-.885h.724l.056.513a1.133,1.133,0,0,1,.436-.439,1.25,1.25,0,0,1,.622-.155Q68.421,919.712,68.421,921Z" transform="translate(-56.493 -918.512)" fill="#fff"/>
        <path id="Path_3027" data-name="Path 3027" d="M77.953,919.792v3.125h-.761v-.5a1,1,0,0,1-.409.405,1.242,1.242,0,0,1-.606.145,1.335,1.335,0,0,1-.724-.2,1.31,1.31,0,0,1-.489-.563,1.955,1.955,0,0,1-.173-.848,1.982,1.982,0,0,1,.176-.857,1.375,1.375,0,0,1,.492-.582,1.277,1.277,0,0,1,.717-.207,1.246,1.246,0,0,1,.606.145,1.006,1.006,0,0,1,.409.405v-.47Zm-.971,2.3a1.182,1.182,0,0,0,.21-.749,1.2,1.2,0,0,0-.21-.761.722.722,0,0,0-.6-.266.714.714,0,0,0-.6.275,1.221,1.221,0,0,0-.213.764,1.142,1.142,0,0,0,.213.742.738.738,0,0,0,.6.26A.714.714,0,0,0,76.982,922.094Z" transform="translate(-62.214 -918.512)" fill="#fff"/>
        <path id="Path_3028" data-name="Path 3028" d="M87.889,919.792v3.026a1.447,1.447,0,0,1-.4,1.107,1.667,1.667,0,0,1-1.182.377,2.6,2.6,0,0,1-1.274-.3l.124-.588a2.431,2.431,0,0,0,1.132.3.736.736,0,0,0,.835-.829v-.619a1.092,1.092,0,0,1-.415.411,1.2,1.2,0,0,1-.613.158,1.364,1.364,0,0,1-.727-.195,1.308,1.308,0,0,1-.495-.551,1.965,1.965,0,0,1,0-1.627,1.308,1.308,0,0,1,.495-.551,1.364,1.364,0,0,1,.727-.195,1.279,1.279,0,0,1,.616.145,1,1,0,0,1,.411.405v-.47ZM86.9,921.97a1.23,1.23,0,0,0,0-1.4.848.848,0,0,0-1.21,0,1.221,1.221,0,0,0,0,1.4.844.844,0,0,0,1.206,0Z" transform="translate(-68.288 -918.512)" fill="#fff"/>
        <path id="Path_3029" data-name="Path 3029" d="M97.572,921.395H95.418a1.128,1.128,0,0,0,.251.739.881.881,0,0,0,.671.238,1.541,1.541,0,0,0,.952-.334l.223.532a1.751,1.751,0,0,1-.548.288,2.081,2.081,0,0,1-.659.108,1.644,1.644,0,0,1-1.206-.433,1.592,1.592,0,0,1-.439-1.188,1.818,1.818,0,0,1,.192-.848,1.413,1.413,0,0,1,.538-.578,1.5,1.5,0,0,1,.786-.207,1.3,1.3,0,0,1,1.018.418,1.657,1.657,0,0,1,.375,1.148Zm-1.878-.944a.892.892,0,0,0-.251.529H96.9a.866.866,0,0,0-.213-.532.65.65,0,0,0-.486-.179A.708.708,0,0,0,95.694,920.451Z" transform="translate(-74.401 -918.512)" fill="#fff"/>
      </g>
      <g id="Group_4097" data-name="Group 4097" transform="translate(12.789 203.455)" style="isolation: isolate">
        <path id="Path_3030" data-name="Path 3030" d="M34.507,531.013v-3.749H33.072v-.656h3.681v.656H35.312v3.749Z" transform="translate(-33.072 -526.429)" fill="#fff"/>
        <path id="Path_3031" data-name="Path 3031" d="M44.521,529.778l-.006.705a1.075,1.075,0,0,0-.408-.08.774.774,0,0,0-.6.229.869.869,0,0,0-.207.606v1.689h-.767v-2.24a7.033,7.033,0,0,0-.049-.885H43.2l.062.551a.927.927,0,0,1,.371-.464,1.052,1.052,0,0,1,.575-.161A.873.873,0,0,1,44.521,529.778Z" transform="translate(-38.841 -528.342)" fill="#fff"/>
        <path id="Path_3032" data-name="Path 3032" d="M51.434,529.792v3.125h-.761v-.5a1,1,0,0,1-.408.405,1.243,1.243,0,0,1-.606.145,1.335,1.335,0,0,1-.724-.2,1.311,1.311,0,0,1-.489-.563,1.955,1.955,0,0,1-.173-.848,1.988,1.988,0,0,1,.176-.857,1.378,1.378,0,0,1,.492-.582,1.278,1.278,0,0,1,.718-.207,1.247,1.247,0,0,1,.606.145,1.008,1.008,0,0,1,.408.405v-.47Zm-.971,2.3a1.182,1.182,0,0,0,.21-.749,1.2,1.2,0,0,0-.21-.761.721.721,0,0,0-.6-.266.713.713,0,0,0-.6.275,1.221,1.221,0,0,0-.213.764,1.142,1.142,0,0,0,.213.742.737.737,0,0,0,.6.26A.713.713,0,0,0,50.462,532.094Z" transform="translate(-42.394 -528.332)" fill="#fff"/>
        <path id="Path_3033" data-name="Path 3033" d="M61.453,531v1.918H60.68v-1.881a.838.838,0,0,0-.142-.541.54.54,0,0,0-.439-.17.754.754,0,0,0-.57.226.827.827,0,0,0-.217.6v1.77h-.767v-2.24a7.1,7.1,0,0,0-.049-.885h.724l.056.513a1.132,1.132,0,0,1,.436-.439,1.249,1.249,0,0,1,.622-.155Q61.453,529.712,61.453,531Z" transform="translate(-48.665 -528.332)" fill="#fff"/>
        <path id="Path_3034" data-name="Path 3034" d="M67.744,532.57l.217-.544a1.872,1.872,0,0,0,1.145.371.826.826,0,0,0,.43-.093.29.29,0,0,0,.152-.26.274.274,0,0,0-.105-.226.976.976,0,0,0-.359-.145l-.519-.118q-.854-.186-.854-.872a.83.83,0,0,1,.161-.5,1.052,1.052,0,0,1,.452-.343,1.706,1.706,0,0,1,.674-.124,2.041,2.041,0,0,1,.643.1,1.691,1.691,0,0,1,.544.294l-.229.526a1.612,1.612,0,0,0-.965-.346.743.743,0,0,0-.415.1.311.311,0,0,0-.148.272.276.276,0,0,0,.09.217.747.747,0,0,0,.306.136l.532.118a1.344,1.344,0,0,1,.677.325.785.785,0,0,1,.214.572.807.807,0,0,1-.346.687,1.575,1.575,0,0,1-.947.254A2.114,2.114,0,0,1,67.744,532.57Z" transform="translate(-54.337 -528.332)" fill="#fff"/>
        <path id="Path_3035" data-name="Path 3035" d="M76.646,527.338v.266h.7v.582h-.7v2.543h-.773v-2.543h-.594V527.6h.594v-.3a1.207,1.207,0,0,1,.282-.857,1.053,1.053,0,0,1,.807-.3,1.4,1.4,0,0,1,.489.074v.613a1.283,1.283,0,0,0-.3-.043Q76.646,526.787,76.646,527.338Z" transform="translate(-58.958 -526.144)" fill="#fff"/>
        <path id="Path_3036" data-name="Path 3036" d="M82.383,532.768a1.353,1.353,0,0,1-.557-.566,2.009,2.009,0,0,1,0-1.726,1.354,1.354,0,0,1,.557-.566,1.721,1.721,0,0,1,.838-.2,1.689,1.689,0,0,1,.829.2,1.358,1.358,0,0,1,.554.566,2.009,2.009,0,0,1,0,1.726,1.357,1.357,0,0,1-.554.566,1.689,1.689,0,0,1-.829.2A1.722,1.722,0,0,1,82.383,532.768Zm1.435-.665a1.5,1.5,0,0,0,0-1.528.717.717,0,0,0-.594-.263.725.725,0,0,0-.6.263,1.5,1.5,0,0,0,0,1.528.83.83,0,0,0,1.2,0Z" transform="translate(-62.854 -528.332)" fill="#fff"/>
        <path id="Path_3037" data-name="Path 3037" d="M93.465,529.778l-.006.705a1.076,1.076,0,0,0-.409-.08.774.774,0,0,0-.6.229.869.869,0,0,0-.207.606v1.689h-.767v-2.24a7.033,7.033,0,0,0-.049-.885h.724l.062.551a.927.927,0,0,1,.371-.464,1.052,1.052,0,0,1,.575-.161A.875.875,0,0,1,93.465,529.778Z" transform="translate(-68.859 -528.342)" fill="#fff"/>
        <path id="Path_3038" data-name="Path 3038" d="M102.224,530.031a1.512,1.512,0,0,1,.26.968v1.918h-.773v-1.893a.92.92,0,0,0-.121-.535.464.464,0,0,0-.4-.164.614.614,0,0,0-.5.226.965.965,0,0,0-.183.622v1.745h-.773v-1.893a.886.886,0,0,0-.127-.532.469.469,0,0,0-.4-.167.622.622,0,0,0-.507.226.953.953,0,0,0-.186.622v1.745h-.767v-2.24a7.033,7.033,0,0,0-.049-.885h.724l.056.495a.975.975,0,0,1,.393-.427,1.157,1.157,0,0,1,.59-.148.89.89,0,0,1,.934.594,1.077,1.077,0,0,1,.424-.436,1.214,1.214,0,0,1,.615-.158A.961.961,0,0,1,102.224,530.031Z" transform="translate(-72.706 -528.332)" fill="#fff"/>
      </g>
      <path id="Path_1562" data-name="Path 1562" d="M49.42,459.01c.237.058.329.672.358,1.077a.724.724,0,0,0,.322.535c.344.217.845.578.788.817s-.674.332-1.075.369a.658.658,0,0,0-.523.318c-.215.348-.58.853-.817.8s-.329-.679-.358-1.083a.724.724,0,0,0-.323-.527c-.337-.217-.845-.58-.788-.824s.674-.327,1.074-.363a.673.673,0,0,0,.523-.325C48.817,459.429,49.183,458.923,49.42,459.01Z" transform="translate(-28.826 -281.509)" fill="#fff"/>
      <path id="Path_1564" data-name="Path 1564" d="M57.252,475.06c.136.065.122.464.1.723a.443.443,0,0,0,.136.368c.193.174.464.464.4.6s-.459.131-.717.108a.436.436,0,0,0-.365.137c-.172.188-.459.464-.595.4s-.129-.455-.107-.723a.428.428,0,0,0-.136-.361c-.186-.174-.459-.464-.394-.607s.451-.123.717-.1a.422.422,0,0,0,.358-.137C56.824,475.277,57.109,475,57.252,475.06Z" transform="translate(-34.079 -291.353)" fill="#fff"/>
      <path id="Path_2123" data-name="Path 2123" d="M51.25,484.925l10.939-11.032a1.248,1.248,0,0,1,1.764-.01l.01.01a1.273,1.273,0,0,1,0,1.79L53.024,486.715a1.248,1.248,0,0,1-1.764.01l-.01-.01A1.273,1.273,0,0,1,51.25,484.925Z" transform="translate(-31.206 -290.416)" fill="none" stroke="#fff" stroke-width="1.5"/>
      <path id="Path_1563" data-name="Path 1563" d="M92.084,478.385c.165.058.179.506.179.8a.478.478,0,0,0,.186.4c.229.174.559.47.5.636s-.5.188-.788.181a.472.472,0,0,0-.394.193c-.179.224-.473.556-.638.5s-.186-.506-.179-.8a.493.493,0,0,0-.186-.4c-.229-.174-.559-.47-.5-.636s.5-.188.788-.181a.487.487,0,0,0,.394-.188C91.625,478.659,91.919,478.327,92.084,478.385Z" transform="translate(-55.356 -293.393)" fill="#fff"/>
      <ellipse id="Ellipse_328" data-name="Ellipse 328" cx="8" cy="7.5" rx="8" ry="7.5" transform="translate(79.883 68.785)" fill="#dedede"/>
      <circle id="Ellipse_330" data-name="Ellipse 330" cx="7.5" cy="7.5" r="7.5" transform="translate(451.883 68.785)" fill="#dedede"/>
      <rect id="Rectangle_1793-14" data-name="Rectangle 1793-14" width="231.707" height="8.035" rx="4.018" transform="translate(101.313 234.722)" fill="#dedede"/>
      <rect id="Rectangle_1793-15" data-name="Rectangle 1793-15" width="172.543" height="8.035" rx="4.018" transform="translate(473.311 234.722)" fill="#dedede"/>
      <circle id="Ellipse_332" data-name="Ellipse 332" cx="8" cy="8" r="8" transform="translate(79.883 230.785)" fill="#dedede"/>
      <ellipse id="Ellipse_331" data-name="Ellipse 331" cx="7.5" cy="8" rx="7.5" ry="8" transform="translate(451.883 230.785)" fill="#dedede"/>
      <circle id="Ellipse_339" data-name="Ellipse 339" cx="4" cy="4" r="4" transform="translate(214.883 95.785)" fill="#76d25d"/>
      <circle id="Ellipse_349" data-name="Ellipse 349" cx="3.5" cy="3.5" r="3.5" transform="translate(300.883 183.785)" fill="#ff405d"/>
      <ellipse id="Ellipse_351" data-name="Ellipse 351" cx="4" cy="3.5" rx="4" ry="3.5" transform="translate(362.883 183.785)" fill="#f1c048"/>
      <rect id="Rectangle_1793-16" data-name="Rectangle 1793-16" width="36.531" height="8.035" rx="4.018" transform="translate(505.863 183.518)" fill="#dedede"/>
      <rect id="Rectangle_1793-17" data-name="Rectangle 1793-17" width="47.745" height="8.035" rx="4.018" transform="translate(568.508 183.518)" fill="#dedede"/>
      <ellipse id="Ellipse_353" data-name="Ellipse 353" cx="4" cy="3.5" rx="4" ry="3.5" transform="translate(493.883 183.785)" fill="#3099ef"/>
      <ellipse id="Ellipse_354" data-name="Ellipse 354" cx="4" cy="3.5" rx="4" ry="3.5" transform="translate(555.883 183.785)" fill="#f1c048"/>
      <circle id="Ellipse_348" data-name="Ellipse 348" cx="4" cy="4" r="4" transform="translate(379.883 252.785)" fill="#76d25d"/>
      <ellipse id="Ellipse_355" data-name="Ellipse 355" cx="3.5" cy="4" rx="3.5" ry="4" transform="translate(569.883 252.785)" fill="#3099ef"/>
      <circle id="Ellipse_345" data-name="Ellipse 345" cx="4" cy="4" r="4" transform="translate(214.883 108.785)" fill="#3099ef"/>
      <ellipse id="Ellipse_350" data-name="Ellipse 350" cx="3.5" cy="4" rx="3.5" ry="4" transform="translate(300.883 196.785)" fill="#3099ef"/>
      <circle id="Ellipse_352" data-name="Ellipse 352" cx="4" cy="4" r="4" transform="translate(362.883 196.785)" fill="#76d25d"/>
      <circle id="Ellipse_347" data-name="Ellipse 347" cx="4" cy="4" r="4" transform="translate(379.883 265.785)" fill="#3099ef"/>
      <circle id="Ellipse_346" data-name="Ellipse 346" cx="4" cy="4" r="4" transform="translate(214.883 122.785)" fill="#1d6cf0"/>
      <circle id="Ellipse_329" data-name="Ellipse 329" cx="7.5" cy="7.5" r="7.5" transform="translate(279.883 68.785)" fill="#dedede"/>
    </g>
  </g>
</svg>
